HIERARCHY
ROOT joint_0
{
	OFFSET 0.000000 0.000000 0.000000
	CHANNELS 6 Xposition Yposition Zposition Zrotation Yrotation Xrotation 
	JOINT joint_1
	{
		OFFSET 11.612000 -0.419000 106.198000
		CHANNELS 3 Zrotation Yrotation Xrotation
		JOINT joint_2
		{
			OFFSET -1.708000 -1.022000 97.564090
			CHANNELS 3 Zrotation Yrotation Xrotation
			JOINT joint_3
			{
				OFFSET -4.121000 -1.538000 97.375000
				CHANNELS 3 Zrotation Yrotation Xrotation
				JOINT joint_4
				{
					OFFSET 5.442000 -2.123000 132.795900
					CHANNELS 3 Zrotation Yrotation Xrotation
					JOINT joint_5
					{
						OFFSET 21.935000 0.195000 82.975100
						CHANNELS 3 Zrotation Yrotation Xrotation
						End Site
						{
							OFFSET 0.000000 0.000000 0.000000
						}
					}
				}
				JOINT joint_6
				{
					OFFSET 4.262000 -30.048000 73.899900
					CHANNELS 3 Zrotation Yrotation Xrotation
					JOINT joint_7
					{
						OFFSET 9.731000 -136.810010 -21.963010
						CHANNELS 3 Zrotation Yrotation Xrotation
						JOINT joint_8
						{
							OFFSET 33.360000 -35.709000 -267.597900
							CHANNELS 3 Zrotation Yrotation Xrotation
							JOINT joint_9
							{
								OFFSET 36.156000 -29.759000 -240.558040
								CHANNELS 3 Zrotation Yrotation Xrotation
								End Site
								{
									OFFSET 0.000000 0.000000 0.000000
								}
							}
						}
					}
				}
				JOINT joint_10
				{
					OFFSET 2.027000 27.734000 74.914920
					CHANNELS 3 Zrotation Yrotation Xrotation
					JOINT joint_11
					{
						OFFSET -5.183000 136.784000 -23.604980
						CHANNELS 3 Zrotation Yrotation Xrotation
						JOINT joint_12
						{
							OFFSET 29.806000 37.229000 -267.809940
							CHANNELS 3 Zrotation Yrotation Xrotation
							JOINT joint_13
							{
								OFFSET 36.890000 46.524990 -237.772030
								CHANNELS 3 Zrotation Yrotation Xrotation
								End Site
								{
									OFFSET 0.000000 0.000000 0.000000
								}
							}
						}
					}
				}
			}
		}
	}
	JOINT joint_14
	{
		OFFSET -7.290000 -102.873990 -124.314940
		CHANNELS 3 Zrotation Yrotation Xrotation
		JOINT joint_15
		{
			OFFSET -15.466000 -19.909010 -438.533020
			CHANNELS 3 Zrotation Yrotation Xrotation
			JOINT joint_16
			{
				OFFSET -26.899000 -18.922000 -464.797000
				CHANNELS 3 Zrotation Yrotation Xrotation
				JOINT joint_17
				{
					OFFSET 179.329000 -12.011000 -84.174000
					CHANNELS 3 Zrotation Yrotation Xrotation
					End Site
					{
						OFFSET 0.000000 0.000000 0.000000
					}
				}
			}
		}
	}
	JOINT joint_18
	{
		OFFSET -6.225000 101.546000 -125.479980
		CHANNELS 3 Zrotation Yrotation Xrotation
		JOINT joint_19
		{
			OFFSET -13.973000 7.996000 -438.963010
			CHANNELS 3 Zrotation Yrotation Xrotation
			JOINT joint_20
			{
				OFFSET -44.294000 5.716000 -463.813970
				CHANNELS 3 Zrotation Yrotation Xrotation
				JOINT joint_21
				{
					OFFSET 178.505000 -4.689000 -85.139000
					CHANNELS 3 Zrotation Yrotation Xrotation
					End Site
					{
						OFFSET 0.000000 0.000000 0.000000
					}
				}
			}
		}
	}
}
MOTION
Frames: 16
Frame Time: 0.016667
-3092.794922 923.300293 1114.468018 -9.830482 0.148431 -1.050275 0.032551 13.189655 1.094395 -2.430016 -2.322603 -0.249295 -2.723843 2.203986 0.108071 -0.890987 -2.690797 3.557938 0.000000 0.000000 0.000000 -2.633631 -18.210319 1.205767 -0.659440 -9.627432 -1.389946 14.786118 -86.606056 18.072507 0.000000 0.000000 0.000000 1.074628 -17.146404 3.303474 6.486109 -8.646671 1.397104 171.182159 -87.149001 149.725769 0.000000 0.000000 0.000000 3.509425 -4.604000 -5.622415 1.611803 35.051814 5.397253 2.107425 -4.093520 0.566236 0.000000 0.000000 0.000000 5.568512 -10.469504 -0.091536 6.598794 21.079227 2.769335 6.901305 -10.313834 2.842984 0.000000 0.000000 0.000000 
-3090.231445 925.310608 1115.180054 -10.095743 -0.111355 -1.097602 0.097491 13.322506 0.901657 -2.574118 -2.335084 -0.191219 -2.905920 2.216196 0.092482 -0.890941 -2.586215 3.568608 0.000000 0.000000 0.000000 -2.613332 -18.060141 1.288187 -0.123354 -9.675326 -1.120760 15.026483 -85.322909 16.561965 0.000000 0.000000 0.000000 0.890533 -17.268117 3.324767 6.295193 -8.804982 1.083553 171.099118 -88.731055 149.784910 0.000000 0.000000 0.000000 3.591922 -5.842465 -6.078887 1.602639 37.358563 6.099404 1.854535 -3.442266 0.503242 0.000000 0.000000 0.000000 5.625443 -9.994797 -0.178158 6.695724 21.011628 2.837439 7.022524 -10.237579 2.894478 0.000000 0.000000 0.000000 
-3087.820557 926.655823 1116.366943 -10.295044 -0.306319 -1.166122 0.131861 13.382344 0.778748 -2.713764 -2.329022 -0.193944 -3.070376 2.216104 0.112357 -0.901821 -2.504183 3.627318 0.000000 0.000000 0.000000 -2.619311 -17.973028 1.340532 0.154855 -9.798151 -0.963944 15.138406 -83.874095 15.768546 0.000000 0.000000 0.000000 0.663540 -17.144844 3.504249 6.036687 -8.879459 0.624322 -9.023566 -89.576476 -29.838804 0.000000 0.000000 0.000000 3.434354 -7.014123 -6.300233 1.395424 39.278580 6.498462 1.228809 -3.261958 0.263465 0.000000 0.000000 0.000000 5.646968 -9.522723 -0.169692 6.745473 20.773408 2.829261 7.081096 -10.010392 2.924250 0.000000 0.000000 0.000000 
-3085.386963 927.495544 1117.906006 -10.403398 -0.458503 -1.242358 0.102307 13.399348 0.699074 -2.835063 -2.322476 -0.206111 -3.198537 2.214336 0.137147 -0.911602 -2.442632 3.680511 0.000000 0.000000 0.000000 -2.625701 -17.843415 1.351429 0.354337 -9.920722 -0.860632 15.206203 -82.527246 15.109455 0.000000 0.000000 0.000000 0.476908 -16.920092 3.657785 5.751427 -8.914199 0.167133 -9.180806 -87.913713 -29.316244 0.000000 0.000000 0.000000 3.172611 -7.965531 -6.420153 1.109815 40.411737 6.749417 0.505947 -3.457049 -0.035318 0.000000 0.000000 0.000000 5.655157 -9.053430 -0.120851 6.749769 20.420848 2.802439 7.081080 -9.636106 2.934592 0.000000 0.000000 0.000000 
-3082.785889 927.913757 1119.770996 -10.379275 -0.583273 -1.324993 -0.025367 13.393349 0.654075 -2.933355 -2.334011 -0.187773 -3.282123 2.223945 0.142063 -0.910648 -2.407687 3.684716 0.000000 0.000000 0.000000 -2.613141 -17.577860 1.308195 0.579221 -9.985243 -0.780983 15.278577 -81.486058 14.196651 0.000000 0.000000 0.000000 0.400893 -16.662766 3.643824 5.451994 -8.935389 -0.192227 -9.391203 -86.313762 -28.755117 0.000000 0.000000 0.000000 2.866030 -8.549084 -6.548268 0.784146 40.390149 7.012449 -0.120477 -3.978325 -0.313852 0.000000 0.000000 0.000000 5.654738 -8.582992 -0.052623 6.699798 19.980331 2.786643 7.013498 -9.093720 2.922724 0.000000 0.000000 0.000000 
-3080.081543 927.857727 1122.011963 -10.236468 -0.668930 -1.425005 -0.237693 13.347326 0.664600 -3.012152 -2.353582 -0.165271 -3.327044 2.239713 0.141562 -0.903075 -2.397314 3.656121 0.000000 0.000000 0.000000 -2.589715 -17.216083 1.215853 0.771589 -10.014093 -0.750635 15.327993 -80.648342 13.239212 0.000000 0.000000 0.000000 0.406441 -16.324368 3.533382 5.129984 -8.925304 -0.525281 -9.642267 -84.723292 -28.110244 0.000000 0.000000 0.000000 2.464331 -8.823246 -6.635344 0.364393 39.358851 7.259162 -0.713898 -4.815390 -0.602816 0.000000 0.000000 0.000000 5.635331 -8.113732 0.063512 6.598357 19.428019 2.758116 6.880508 -8.380457 2.889383 0.000000 0.000000 0.000000 
-3077.416992 927.362488 1124.368042 -10.085372 -0.707170 -1.517029 -0.475498 13.258730 0.690374 -3.051092 -2.360366 -0.149739 -3.321297 2.247113 0.137507 -0.898186 -2.398626 3.638312 0.000000 0.000000 0.000000 -2.572290 -16.896920 1.106871 0.929098 -10.038987 -0.730568 15.345473 -79.910833 12.336088 0.000000 0.000000 0.000000 0.418108 -15.974423 3.440118 4.837112 -8.882833 -0.815282 -9.864222 -83.433550 -27.432888 0.000000 0.000000 0.000000 2.058950 -8.976434 -6.604840 -0.050944 37.701244 7.286571 -1.169292 -5.729516 -0.848981 0.000000 0.000000 0.000000 5.621971 -7.680395 0.193207 6.488376 18.831971 2.729529 6.728752 -7.603912 2.850923 0.000000 0.000000 0.000000 
-3074.888672 926.471863 1126.723999 -10.005901 -0.685726 -1.579072 -0.707770 13.126079 0.693504 -3.034753 -2.341448 -0.145623 -3.252890 2.230915 0.135940 -0.902249 -2.404022 3.662286 0.000000 0.000000 0.000000 -2.561929 -16.701269 0.989315 1.056641 -10.080052 -0.694066 15.330592 -79.228926 11.500872 0.000000 0.000000 0.000000 0.393536 -15.628860 3.447427 4.602849 -8.787326 -1.046097 -10.025508 -82.718413 -26.751121 0.000000 0.000000 0.000000 1.690859 -9.112924 -6.394961 -0.408235 35.537367 6.891878 -1.459589 -6.504339 -1.026398 0.000000 0.000000 0.000000 5.634040 -7.312882 0.303262 6.396545 18.232111 2.714485 6.585563 -6.806426 2.817774 0.000000 0.000000 0.000000 
-3072.442627 925.172852 1129.182007 -9.944634 -0.617298 -1.602506 -0.950660 12.969893 0.657566 -2.976524 -2.314118 -0.130162 -3.137366 2.197084 0.135067 -0.912000 -2.418891 3.712106 0.000000 0.000000 0.000000 -2.559256 -16.576420 0.852116 1.155760 -10.122120 -0.657660 15.289733 -78.643043 10.694915 0.000000 0.000000 0.000000 0.353812 -15.252913 3.517836 4.406410 -8.636043 -1.227732 -10.157446 -82.470071 -26.055853 0.000000 0.000000 0.000000 1.312891 -9.109616 -6.053358 -0.740898 32.627493 6.157103 -1.619944 -7.027934 -1.140073 0.000000 0.000000 0.000000 5.654359 -6.983110 0.384144 6.303581 17.594250 2.711699 6.434530 -5.932439 2.784251 0.000000 0.000000 0.000000 
-3070.059570 923.383057 1131.473022 -9.852560 -0.548854 -1.590581 -1.177680 12.816891 0.603510 -2.906998 -2.286026 -0.109327 -3.015363 2.163934 0.131226 -0.921591 -2.427550 3.758815 0.000000 0.000000 0.000000 -2.553241 -16.522748 0.734949 1.206676 -10.179999 -0.619760 15.226856 -78.095424 10.074582 0.000000 0.000000 0.000000 0.322827 -14.955014 3.595538 4.243620 -8.509872 -1.353222 -10.262341 -82.359544 -25.415053 0.000000 0.000000 0.000000 1.004561 -8.979850 -5.650106 -0.970702 29.411710 5.323920 -1.573341 -7.428333 -1.161350 0.000000 0.000000 0.000000 5.664981 -6.644079 0.449816 6.208792 16.946563 2.709894 6.288249 -5.115443 2.750757 0.000000 0.000000 0.000000 
-3067.739746 921.037415 1133.475952 -9.719388 -0.500012 -1.561861 -1.370485 12.674826 0.571747 -2.834755 -2.260852 -0.099351 -2.898130 2.144187 0.117957 -0.926153 -2.416387 3.779224 0.000000 0.000000 0.000000 -2.533851 -16.544551 0.664621 1.196570 -10.267689 -0.573108 15.143225 -77.534216 9.745941 0.000000 0.000000 0.000000 0.313077 -14.815503 3.651801 4.104971 -8.466235 -1.418741 -10.346028 -82.192101 -24.849816 0.000000 0.000000 0.000000 0.844088 -8.752310 -5.198189 -1.020714 26.150259 4.478351 -1.268794 -8.032855 -1.082779 0.000000 0.000000 0.000000 5.665485 -6.276407 0.531502 6.120469 16.305563 2.695133 6.158587 -4.451726 2.719444 0.000000 0.000000 0.000000 
-3065.487549 918.164978 1135.296997 -9.549319 -0.464408 -1.494930 -1.540095 12.554311 0.515587 -2.757606 -2.243105 -0.077774 -2.781594 2.130229 0.098149 -0.927913 -2.393754 3.785451 0.000000 0.000000 0.000000 -2.501161 -16.637790 0.625381 1.133506 -10.379042 -0.521290 15.039436 -76.985490 9.643536 0.000000 0.000000 0.000000 0.319107 -14.789449 3.708772 3.986998 -8.473851 -1.426915 -10.414126 -82.089256 -24.327765 0.000000 0.000000 0.000000 0.810356 -8.375850 -4.694088 -0.894201 22.598794 3.489419 -0.780768 -8.691739 -0.921211 0.000000 0.000000 0.000000 5.657781 -5.881605 0.599691 6.035359 15.653531 2.675739 6.039297 -3.877150 2.689618 0.000000 0.000000 0.000000 
-3063.258789 914.835999 1136.655029 -9.281616 -0.468307 -1.364729 -1.690996 12.461870 0.410370 -2.701178 -2.237197 -0.039944 -2.695331 2.121893 0.079757 -0.929881 -2.353249 3.786622 0.000000 0.000000 0.000000 -2.482734 -16.781294 0.622669 1.018059 -10.492881 -0.503504 14.921682 -76.530065 9.757717 0.000000 0.000000 0.000000 0.324837 -14.838067 3.748459 3.915684 -8.522942 -1.367622 -10.451370 -81.967001 -23.921348 0.000000 0.000000 0.000000 0.856514 -7.879919 -4.221349 -0.655618 19.081996 2.507662 -0.280187 -8.848717 -0.712851 0.000000 0.000000 0.000000 5.612945 -5.447521 0.616947 5.929396 15.023132 2.671056 5.913808 -3.399993 2.652417 0.000000 0.000000 0.000000 
-3060.992676 911.084167 1137.357056 -8.864518 -0.516679 -1.188870 -1.840085 12.370017 0.307960 -2.682309 -2.233640 -0.018661 -2.654116 2.122421 0.067413 -0.934653 -2.285268 3.790070 0.000000 0.000000 0.000000 -2.500858 -16.978240 0.679051 0.838726 -10.604741 -0.568975 14.792211 -76.218701 10.128444 0.000000 0.000000 0.000000 0.317826 -14.942305 3.749606 3.923454 -8.614280 -1.212342 -10.438214 -81.757095 -23.705059 0.000000 0.000000 0.000000 1.005039 -7.292044 -3.779237 -0.299368 15.772217 1.607282 0.217383 -8.262684 -0.450177 0.000000 0.000000 0.000000 5.512236 -4.983859 0.595641 5.783306 14.436121 2.696005 5.765492 -3.040887 2.599375 0.000000 0.000000 0.000000 
-3058.703613 906.884705 1137.511963 -8.318689 -0.601429 -0.978536 -1.986801 12.275902 0.219722 -2.691073 -2.228365 -0.018627 -2.645513 2.130200 0.059540 -0.940815 -2.192169 3.791325 0.000000 0.000000 0.000000 -2.549153 -17.238818 0.795837 0.593690 -10.724347 -0.707434 14.647074 -76.015420 10.764951 0.000000 0.000000 0.000000 0.300201 -15.117101 3.717553 3.997641 -8.752615 -0.963833 -10.383840 -81.486163 -23.644248 0.000000 0.000000 0.000000 1.299948 -6.599928 -3.323858 0.223201 12.553539 0.653537 0.765578 -7.198220 -0.127647 0.000000 0.000000 0.000000 5.368106 -4.495216 0.553230 5.604790 13.879588 2.743295 5.597164 -2.796191 2.532356 0.000000 0.000000 0.000000 
-3056.539795 902.285767 1137.125977 -7.782365 -0.728185 -0.707950 -2.075937 12.214910 0.063579 -2.685098 -2.230287 0.008750 -2.631214 2.133985 0.051777 -0.945326 -2.094289 3.785964 0.000000 0.000000 0.000000 -2.585277 -17.488861 0.891177 0.330546 -10.813883 -0.816854 14.489198 -75.913426 11.482973 0.000000 0.000000 0.000000 0.300510 -15.343846 3.680918 4.070135 -8.915721 -0.714782 -10.331079 -81.174403 -23.631645 0.000000 0.000000 0.000000 1.511041 -6.011208 -2.962034 0.621250 10.084852 -0.147786 1.088522 -5.894550 0.109654 0.000000 0.000000 0.000000 5.216391 -3.985149 0.489997 5.429884 13.394298 2.764694 5.434093 -2.686922 2.462269 0.000000 0.000000 0.000000 
